{"accessors":[{"bufferView":2,"componentType":5126,"count":1114,"max":[0.9924950003623962,2.985733985900879,2.153841972351074],"min":[-0.9840239882469177,-9.999999974752427e-7,-2.947396993637085],"type":"VEC3"},{"bufferView":2,"byteOffset":13368,"componentType":5126,"count":1114,"max":[0.9992865920066833,0.9952352046966553,0.9998971223831177],"min":[-0.9999657869338989,-1,-0.9997333884239197],"type":"VEC3"},{"bufferView":1,"componentType":5126,"count":1114,"max":[0.8712869882583618,0.8712869882583618],"min":[0.37623798847198486,0.128712996840477],"type":"VEC2"},{"bufferView":0,"componentType":5125,"count":1392,"type":"SCALAR"},{"bufferView":2,"byteOffset":26736,"componentType":5126,"count":835,"max":[1.496271014213562,4.005137920379639,2.5837349891662598],"min":[-1.4324690103530884,-9.999999974752427e-7,-1.8526020050048828],"type":"VEC3"},{"bufferView":2,"byteOffset":36756,"componentType":5126,"count":835,"max":[0.9923666715621948,0.9965205788612366,0.9957257509231567],"min":[-0.9995188117027283,-1,-0.9933392405509949],"type":"VEC3"},{"bufferView":1,"byteOffset":8912,"componentType":5126,"count":835,"max":[0.8094059824943542,0.6547030210494995],"min":[0.37623798847198486,0.25247499346733093],"type":"VEC2"},{"bufferView":0,"byteOffset":5568,"componentType":5125,"count":930,"type":"SCALAR"},{"bufferView":2,"byteOffset":46776,"componentType":5126,"count":252,"max":[0.8964260220527649,2.045902967453003,1.7070319652557373],"min":[-0.9220759868621826,0.3292210102081299,-1.7687640190124512],"type":"VEC3"},{"bufferView":2,"byteOffset":49800,"componentType":5126,"count":252,"max":[0.973142683506012,0.4537271559238434,0.9973776936531067],"min":[-0.98476642370224,-0.9903790354728699,-0.9822005033493042],"type":"VEC3"},{"bufferView":1,"byteOffset":15592,"componentType":5126,"count":252,"max":[0.8712869882583618,0.5],"min":[0.37623798847198486,0.128712996840477],"type":"VEC2"},{"bufferView":0,"byteOffset":9288,"componentType":5125,"count":312,"type":"SCALAR"}],"asset":{"extras":{"author":"DavidA3D (https://sketchfab.com/DavidA3D)","license":"SKETCHFAB Standard (https://sketchfab.com/licenses)","source":"https://sketchfab.com/3d-models/low-poly-kregger-rebel-moon-663c04bc07ac406ab3896ed175594fc5","title":"Low-Poly Kregger (Rebel Moon)"},"generator":"Sketchfab-16.14.0","version":"2.0"},"bufferViews":[{"buffer":0,"byteLength":10536,"name":"floatBufferViews","target":34963},{"buffer":0,"byteLength":17608,"byteOffset":10536,"byteStride":8,"name":"floatBufferViews","target":34962},{"buffer":0,"byteLength":52824,"byteOffset":28144,"byteStride":12,"name":"floatBufferViews","target":34962}],"buffers":[{"byteLength":80968,"uri":"data:application/octet-stream;base64,"}],"materials":[{"doubleSided":true,"name":"Cyan-Dark","pbrMetallicRoughness":{"baseColorFactor":[0.192157,0.317647,0.337255,1],"metallicFactor":0,"roughnessFactor":0.9449134553313725}},{"doubleSided":true,"name":"White","pbrMetallicRoughness":{"baseColorFactor":[0.8,0.8,0.8,1],"metallicFactor":0,"roughnessFactor":0.848977756631869}},{"doubleSided":true,"name":"Magenta","pbrMetallicRoughness":{"baseColorFactor":[0.615686,0.392157,0.545098,1],"metallicFactor":0,"roughnessFactor":0.9149137649847525}}],"meshes":[{"name":"Kregger.obj_Cyan-Dark_0","primitives":[{"attributes":{"NORMAL":1,"POSITION":0,"TEXCOORD_0":2},"indices":3,"material":0,"mode":4}]},{"name":"Kregger.obj_White_0","primitives":[{"attributes":{"NORMAL":5,"POSITION":4,"TEXCOORD_0":6},"indices":7,"material":1,"mode":4}]},{"name":"Kregger.obj_Magenta_0","primitives":[{"attributes":{"NORMAL":9,"POSITION":8,"TEXCOORD_0":10},"indices":11,"material":2,"mode":4}]}],"nodes":[{"children":[1],"matrix":[1,0,0,0,0,2.220446049250313e-16,-1,0,0,1,2.220446049250313e-16,0,0,0,0,1],"name":"Sketchfab_model"},{"children":[2],"matrix":[0.009999999776482582,0,0,0,0,0,0.009999999776482582,0,0,-0.009999999776482582,0,0,0,0,0,1],"name":"59e2995f62d64438aeae9cf15bb87cdc.fbx"},{"children":[3],"name":"RootNode"},{"children":[4,5,6],"matrix":[100,0,0,0,0,99.99999999999866,0.000016292067073209114,0,0,-0.000016292067073209114,99.99999999999866,0,0,0,0,1],"name":"Kregger.obj"},{"mesh":0,"name":"Kregger.obj_Cyan-Dark_0"},{"mesh":1,"name":"Kregger.obj_White_0"},{"mesh":2,"name":"Kregger.obj_Magenta_0"}],"scene":0,"scenes":[{"name":"Sketchfab_Scene","nodes":[0]}]}